<?xml version="1.0" encoding="utf-8" ?>
<!DOCTYPE svg PUBLIC "-//W3C//DTD SVG 1.1//EN" "http://www.w3.org/Graphics/SVG/1.1/DTD/svg11.dtd">
<svg height="1441" version="1.1" width="2472" xmlns="http://www.w3.org/2000/svg">
<rect fill="#ffffff" height="136" stroke="#ffffff" stroke-width="1" width="140" x="454" y="558"/>
<rect fill="none" height="136" stroke="#000000" stroke-width="1" width="140" x="454" y="558"/>
<text font-family="Dialog" font-size="12" x="510" y="572">
User</text>
<rect fill="#000000" height="1" stroke="#000000" stroke-width="1" width="140" x="454" y="581"/>
<text font-family="Dialog" font-size="12" x="458" y="596">
name : String</text>
<text font-family="Dialog" font-size="12" x="458" y="612">
score : Integer</text>
<rect fill="#000000" height="1" stroke="#000000" stroke-width="1" width="140" x="454" y="621"/>
<text font-family="Dialog" font-size="12" x="458" y="636">
getName() : String</text>
<text font-family="Dialog" font-size="12" x="458" y="652">
setName(name : String)</text>
<text font-family="Dialog" font-size="12" x="458" y="668">
getScore() : Integer</text>
<text font-family="Dialog" font-size="12" x="458" y="684">
setScore(score : Integer)</text>
<rect fill="#ffffff" height="149" stroke="#ffffff" stroke-width="1" width="542" x="14" y="270"/>
<rect fill="none" height="149" stroke="#000000" stroke-width="1" width="542" x="14" y="270"/>
<text font-family="Dialog" font-size="12" x="263" y="284">
MainAPI</text>
<rect fill="#000000" height="1" stroke="#000000" stroke-width="1" width="542" x="14" y="293"/>
<rect fill="#000000" height="1" stroke="#000000" stroke-width="1" width="542" x="14" y="314"/>
<text font-family="Dialog" font-size="12" x="18" y="329">
checkQuestion(id : Integer,answer : String)</text>
<text font-family="Dialog" font-size="12" x="18" y="345">
getRandomQuestion(topics : List&lt;QuizTopic&gt;) : Question</text>
<text font-family="Dialog" font-size="12" x="18" y="361">
generateCardDeck(deckOffset : Integer = 0,deckSize : Integer,randomize : Boolean = False) : Object</text>
<text font-family="Dialog" font-size="12" x="18" y="377">
getCardDeckInfo(cardNames : List&lt;String&gt;,jsonld : Boolean = False) : Object</text>
<text font-family="Dialog" font-size="12" x="18" y="393">
addHighScore(user : User)</text>
<text font-family="Dialog" font-size="12" x="18" y="409">
getHighScores(pageSize : Integer,pageOffset : Integer = 0) : Object</text>
<rect fill="#ffffff" height="85" stroke="#ffffff" stroke-width="1" width="312" x="206" y="22"/>
<rect fill="none" height="85" stroke="#000000" stroke-width="1" width="312" x="206" y="22"/>
<text font-family="Dialog" font-size="12" x="341" y="36">
QuizAPI</text>
<rect fill="#000000" height="1" stroke="#000000" stroke-width="1" width="312" x="206" y="45"/>
<rect fill="#000000" height="1" stroke="#000000" stroke-width="1" width="312" x="206" y="66"/>
<text font-family="Dialog" font-size="12" x="210" y="81">
getRandomQuestion(topics : List&lt;QuizTopic&gt;) : Question</text>
<text font-family="Dialog" font-size="12" x="210" y="97">
checkQuestion(id : Integer,answer : String)</text>
<rect fill="#ffffff" height="173" stroke="#ffffff" stroke-width="1" width="617" x="854" y="254"/>
<rect fill="none" height="173" stroke="#000000" stroke-width="1" width="617" x="854" y="254"/>
<text font-family="Dialog" font-size="12" x="1136" y="268">
CardsAPI</text>
<rect fill="#000000" height="1" stroke="#000000" stroke-width="1" width="617" x="854" y="278"/>
<rect fill="#000000" height="1" stroke="#000000" stroke-width="1" width="617" x="854" y="307"/>
<text font-family="Dialog" font-size="12" x="858" y="322">
generateCardDeck(deckOffset : Integer = 0,deckSize : Integer,randomize : Boolean = False) : List&lt;CardPreview&gt;</text>
<text font-family="Dialog" font-size="12" x="858" y="339">
getCardDeckInfo(cardNames : List&lt;String&gt;,jsonld : Boolean = False) : List&lt;Card&gt;</text>
<text font-family="Dialog" font-size="12" x="858" y="356">
addHighScore(user : User)</text>
<text font-family="Dialog" font-size="12" x="858" y="373">
getHighScores(pageSize : Integer,pageOffset : Integer = 0) : List&lt;User&gt;</text>
<text font-family="Dialog" font-size="12" x="858" y="390">
scrapeExternalAPIsData()</text>
<text font-family="Dialog" font-size="12" x="858" y="407">
processExternalAPIsData()</text>
<rect fill="#ffffff" height="136" stroke="#ffffff" stroke-width="1" width="166" x="1126" y="550"/>
<rect fill="none" height="136" stroke="#000000" stroke-width="1" width="166" x="1126" y="550"/>
<text font-family="Dialog" font-size="12" x="1195" y="564">
Card</text>
<rect fill="#000000" height="1" stroke="#000000" stroke-width="1" width="166" x="1126" y="573"/>
<text font-family="Dialog" font-size="12" x="1130" y="588">
name : String</text>
<text font-family="Dialog" font-size="12" x="1130" y="604">
universe : String</text>
<text font-family="Dialog" font-size="12" x="1130" y="620">
avatar : String</text>
<text font-family="Dialog" font-size="12" x="1130" y="636">
score : Integer</text>
<text font-family="Dialog" font-size="12" x="1130" y="652">
types : List&lt;CardPowerType&gt;</text>
<rect fill="#000000" height="1" stroke="#000000" stroke-width="1" width="166" x="1126" y="661"/>
<text font-family="Dialog" font-size="12" x="1130" y="676">
convertToJSONLD() : Object</text>
<rect fill="#ffffff" height="136" stroke="#ffffff" stroke-width="1" width="153" x="606" y="142"/>
<rect fill="none" height="136" stroke="#000000" stroke-width="1" width="153" x="606" y="142"/>
<text font-family="Dialog" font-size="12" x="655" y="156">
QuizTopic</text>
<rect fill="#000000" height="1" stroke="#000000" stroke-width="1" width="153" x="606" y="165"/>
<text font-family="Dialog" font-size="12" x="610" y="180">
context : String</text>
<text font-family="Dialog" font-size="12" x="610" y="196">
subject : String</text>
<rect fill="#000000" height="1" stroke="#000000" stroke-width="1" width="153" x="606" y="205"/>
<text font-family="Dialog" font-size="12" x="610" y="220">
getContext() : String</text>
<text font-family="Dialog" font-size="12" x="610" y="236">
setContext(context : String)</text>
<text font-family="Dialog" font-size="12" x="610" y="252">
getSubject() : String</text>
<text font-family="Dialog" font-size="12" x="610" y="268">
setSubject(subject : String)</text>
<rect fill="#ffffff" height="104" stroke="#ffffff" stroke-width="1" width="155" x="694" y="14"/>
<rect fill="none" height="104" stroke="#000000" stroke-width="1" width="155" x="694" y="14"/>
<text font-family="Dialog" font-size="12" x="746" y="28">
Question</text>
<rect fill="#000000" height="1" stroke="#000000" stroke-width="1" width="155" x="694" y="37"/>
<text font-family="Dialog" font-size="12" x="698" y="52">
id : Integer</text>
<text font-family="Dialog" font-size="12" x="698" y="68">
content : String</text>
<rect fill="#000000" height="1" stroke="#000000" stroke-width="1" width="155" x="694" y="77"/>
<text font-family="Dialog" font-size="12" x="698" y="92">
getContent() : String</text>
<text font-family="Dialog" font-size="12" x="698" y="108">
setContent(content : String)</text>
<polyline fill="none" points="269,270 269,106" stroke="#000000" stroke-width="1"/>
<polygon fill="#ffffff" points="269,106 276,118 262,118" stroke="#ffffff" stroke-width="1"/>
<polygon fill="none" points="269,106 276,118 262,118" stroke="#000000" stroke-width="1"/>
<polyline fill="none" points="694,106 517,106" stroke="#000000" stroke-width="1"/>
<polygon fill="#ffffff" points="517,106 529,99 529,113" stroke="#ffffff" stroke-width="1"/>
<polygon fill="none" points="517,106 529,99 529,113" stroke="#000000" stroke-width="1"/>
<polyline fill="none" points="606,142 517,106" stroke="#000000" stroke-width="1"/>
<polygon fill="#ffffff" points="517,106 530,104 525,116" stroke="#ffffff" stroke-width="1"/>
<polygon fill="none" points="517,106 530,104 525,116" stroke="#000000" stroke-width="1"/>
<polyline fill="none" points="555,397 854,397" stroke="#000000" stroke-width="1"/>
<polygon fill="#ffffff" points="854,397 842,404 842,390" stroke="#ffffff" stroke-width="1"/>
<polygon fill="none" points="854,397 842,404 842,390" stroke="#000000" stroke-width="1"/>
<polyline fill="none" points="1206,550 1206,426" stroke="#000000" stroke-width="1"/>
<polygon fill="#ffffff" points="1206,426 1213,438 1199,438" stroke="#ffffff" stroke-width="1"/>
<polygon fill="none" points="1206,426 1213,438 1199,438" stroke="#000000" stroke-width="1"/>
<polyline fill="none" points="593,558 854,426" stroke="#000000" stroke-width="1"/>
<polygon fill="#ffffff" points="854,426 846,437 840,425" stroke="#ffffff" stroke-width="1"/>
<polygon fill="none" points="854,426 846,437 840,425" stroke="#000000" stroke-width="1"/>
<rect fill="#ffffff" height="136" stroke="#ffffff" stroke-width="1" width="140" x="854" y="542"/>
<rect fill="none" height="136" stroke="#000000" stroke-width="1" width="140" x="854" y="542"/>
<text font-family="Dialog" font-size="12" x="889" y="556">
CardPreview</text>
<rect fill="#000000" height="1" stroke="#000000" stroke-width="1" width="140" x="854" y="565"/>
<text font-family="Dialog" font-size="12" x="858" y="580">
name : String</text>
<text font-family="Dialog" font-size="12" x="858" y="596">
score : Integer</text>
<rect fill="#000000" height="1" stroke="#000000" stroke-width="1" width="140" x="854" y="605"/>
<text font-family="Dialog" font-size="12" x="858" y="620">
getName() : String</text>
<text font-family="Dialog" font-size="12" x="858" y="636">
setName(name : String)</text>
<text font-family="Dialog" font-size="12" x="858" y="652">
getScore() : Integer</text>
<text font-family="Dialog" font-size="12" x="858" y="668">
setScore(score : Integer)</text>
<polyline fill="none" points="965,542 965,426" stroke="#000000" stroke-width="1"/>
<polygon fill="#ffffff" points="965,426 972,438 958,438" stroke="#ffffff" stroke-width="1"/>
<polygon fill="none" points="965,426 972,438 958,438" stroke="#000000" stroke-width="1"/>
<rect fill="#ffffff" height="72" stroke="#ffffff" stroke-width="1" width="283" x="1894" y="438"/>
<rect fill="none" height="72" stroke="#000000" stroke-width="1" width="283" x="1894" y="438"/>
<text font-family="Dialog" font-size="12" x="1987" y="452">
MarvelAPIScraper</text>
<rect fill="#000000" height="1" stroke="#000000" stroke-width="1" width="283" x="1894" y="461"/>
<text font-family="Dialog" font-size="12" x="1898" y="476">
API_KEY : String</text>
<rect fill="#000000" height="1" stroke="#000000" stroke-width="1" width="283" x="1894" y="485"/>
<text font-family="Dialog" font-size="12" x="1898" y="500">
scrapeData(marvelEndpoint : String,apiKey : String)</text>
<rect fill="#ffffff" height="69" stroke="#ffffff" stroke-width="1" width="175" x="2022" y="206"/>
<rect fill="none" height="69" stroke="#000000" stroke-width="1" width="175" x="2022" y="206"/>
<text font-family="Dialog" font-size="12" x="2041" y="220">
MarvelAPIDataProcessor</text>
<rect fill="#000000" height="1" stroke="#000000" stroke-width="1" width="175" x="2022" y="229"/>
<rect fill="#000000" height="1" stroke="#000000" stroke-width="1" width="175" x="2022" y="250"/>
<text font-family="Dialog" font-size="12" x="2026" y="265">
processData(jsonData : Object)</text>
<rect fill="#ffffff" height="71" stroke="#ffffff" stroke-width="1" width="220" x="2238" y="150"/>
<rect fill="none" height="71" stroke="#000000" stroke-width="1" width="220" x="2238" y="150"/>
<text font-family="Dialog" font-size="12" x="2287" y="164">
MarvelOntologyBuilder</text>
<rect fill="#000000" height="1" stroke="#000000" stroke-width="1" width="220" x="2238" y="174"/>
<rect fill="#000000" height="1" stroke="#000000" stroke-width="1" width="220" x="2238" y="195"/>
<text font-family="Dialog" font-size="12" x="2242" y="210">
buildOntology(processedData : Object)</text>
<rect fill="#ffffff" height="72" stroke="#ffffff" stroke-width="1" width="283" x="1886" y="526"/>
<rect fill="none" height="72" stroke="#000000" stroke-width="1" width="283" x="1886" y="526"/>
<text font-family="Dialog" font-size="12" x="1970" y="540">
PokemonAPIScraper</text>
<rect fill="#000000" height="1" stroke="#000000" stroke-width="1" width="283" x="1886" y="549"/>
<text font-family="Dialog" font-size="12" x="1890" y="564">
API_KEY : String</text>
<rect fill="#000000" height="1" stroke="#000000" stroke-width="1" width="283" x="1886" y="573"/>
<text font-family="Dialog" font-size="12" x="1890" y="588">
scrapeData(marvelEndpoint : String,apiKey : String)</text>
<rect fill="#ffffff" height="69" stroke="#ffffff" stroke-width="1" width="175" x="1574" y="302"/>
<rect fill="none" height="69" stroke="#000000" stroke-width="1" width="175" x="1574" y="302"/>
<text font-family="Dialog" font-size="12" x="1584" y="316">
PokemonAPIDataProcessor</text>
<rect fill="#000000" height="1" stroke="#000000" stroke-width="1" width="175" x="1574" y="325"/>
<rect fill="#000000" height="1" stroke="#000000" stroke-width="1" width="175" x="1574" y="346"/>
<text font-family="Dialog" font-size="12" x="1578" y="361">
processData(jsonData : Object)</text>
<rect fill="#ffffff" height="69" stroke="#ffffff" stroke-width="1" width="214" x="1638" y="14"/>
<rect fill="none" height="69" stroke="#000000" stroke-width="1" width="214" x="1638" y="14"/>
<text font-family="Dialog" font-size="12" x="1675" y="28">
PokemonOntologyBuilder</text>
<rect fill="#000000" height="1" stroke="#000000" stroke-width="1" width="214" x="1638" y="37"/>
<rect fill="#000000" height="1" stroke="#000000" stroke-width="1" width="214" x="1638" y="58"/>
<text font-family="Dialog" font-size="12" x="1642" y="73">
buildOntology(processedData : Object)</text>
<rect fill="#ffffff" height="72" stroke="#ffffff" stroke-width="1" width="283" x="1886" y="622"/>
<rect fill="none" height="72" stroke="#000000" stroke-width="1" width="283" x="1886" y="622"/>
<text font-family="Dialog" font-size="12" x="1971" y="636">
StarWarsAPIScraper</text>
<rect fill="#000000" height="1" stroke="#000000" stroke-width="1" width="283" x="1886" y="645"/>
<text font-family="Dialog" font-size="12" x="1890" y="660">
API_KEY : String</text>
<rect fill="#000000" height="1" stroke="#000000" stroke-width="1" width="283" x="1886" y="669"/>
<text font-family="Dialog" font-size="12" x="1890" y="684">
scrapeData(marvelEndpoint : String,apiKey : String)</text>
<rect fill="#ffffff" height="72" stroke="#ffffff" stroke-width="1" width="184" x="2030" y="302"/>
<rect fill="none" height="72" stroke="#000000" stroke-width="1" width="184" x="2030" y="302"/>
<text font-family="Dialog" font-size="12" x="2046" y="316">
StarWarsAPIDataProcessor</text>
<rect fill="#000000" height="1" stroke="#000000" stroke-width="1" width="184" x="2030" y="326"/>
<rect fill="#000000" height="1" stroke="#000000" stroke-width="1" width="184" x="2030" y="347"/>
<text font-family="Dialog" font-size="12" x="2034" y="362">
processData(jsonData : Object)</text>
<rect fill="#ffffff" height="69" stroke="#ffffff" stroke-width="1" width="214" x="2214" y="54"/>
<rect fill="none" height="69" stroke="#000000" stroke-width="1" width="214" x="2214" y="54"/>
<text font-family="Dialog" font-size="12" x="2252" y="68">
StarWarsOntologyBuilder</text>
<rect fill="#000000" height="1" stroke="#000000" stroke-width="1" width="214" x="2214" y="77"/>
<rect fill="#000000" height="1" stroke="#000000" stroke-width="1" width="214" x="2214" y="98"/>
<text font-family="Dialog" font-size="12" x="2218" y="113">
buildOntology(processedData : Object)</text>
<rect fill="#ffffff" height="75" stroke="#ffffff" stroke-width="1" width="288" x="1790" y="718"/>
<rect fill="none" height="75" stroke="#000000" stroke-width="1" width="288" x="1790" y="718"/>
<text font-family="Dialog" font-size="12" x="1880" y="732">
StarTrekAPIScraper</text>
<rect fill="#000000" height="1" stroke="#000000" stroke-width="1" width="288" x="1790" y="742"/>
<text font-family="Dialog" font-size="12" x="1794" y="757">
API_KEY : String</text>
<rect fill="#000000" height="1" stroke="#000000" stroke-width="1" width="288" x="1790" y="767"/>
<text font-family="Dialog" font-size="12" x="1794" y="782">
scrapeData(marvelEndpoint : String,apiKey : String)</text>
<rect fill="#ffffff" height="69" stroke="#ffffff" stroke-width="1" width="175" x="1806" y="318"/>
<rect fill="none" height="69" stroke="#000000" stroke-width="1" width="175" x="1806" y="318"/>
<text font-family="Dialog" font-size="12" x="1820" y="332">
StarTrekAPIDataProcessor</text>
<rect fill="#000000" height="1" stroke="#000000" stroke-width="1" width="175" x="1806" y="341"/>
<rect fill="#000000" height="1" stroke="#000000" stroke-width="1" width="175" x="1806" y="362"/>
<text font-family="Dialog" font-size="12" x="1810" y="377">
processData(jsonData : Object)</text>
<rect fill="#ffffff" height="69" stroke="#ffffff" stroke-width="1" width="214" x="1902" y="14"/>
<rect fill="none" height="69" stroke="#000000" stroke-width="1" width="214" x="1902" y="14"/>
<text font-family="Dialog" font-size="12" x="1942" y="28">
StarTrekOntologyBuilder</text>
<rect fill="#000000" height="1" stroke="#000000" stroke-width="1" width="214" x="1902" y="37"/>
<rect fill="#000000" height="1" stroke="#000000" stroke-width="1" width="214" x="1902" y="58"/>
<text font-family="Dialog" font-size="12" x="1906" y="73">
buildOntology(processedData : Object)</text>
<rect fill="#ffffff" height="71" stroke="#ffffff" stroke-width="1" width="172" x="1606" y="438"/>
<rect fill="none" height="71" stroke="#000000" stroke-width="1" width="172" x="1606" y="438"/>
<text font-family="Dialog" font-size="12" x="1661" y="452">
APIScraper</text>
<rect fill="#000000" height="1" stroke="#000000" stroke-width="1" width="172" x="1606" y="462"/>
<rect fill="#000000" height="1" stroke="#000000" stroke-width="1" width="172" x="1606" y="483"/>
<text font-family="Dialog" font-size="12" x="1610" y="498">
scrapeData(apiName : String)</text>
<rect fill="#ffffff" height="69" stroke="#ffffff" stroke-width="1" width="267" x="1670" y="206"/>
<rect fill="none" height="69" stroke="#000000" stroke-width="1" width="267" x="1670" y="206"/>
<text font-family="Dialog" font-size="12" x="1753" y="220">
APIDataProcessor</text>
<rect fill="#000000" height="1" stroke="#000000" stroke-width="1" width="267" x="1670" y="229"/>
<rect fill="#000000" height="1" stroke="#000000" stroke-width="1" width="267" x="1670" y="250"/>
<text font-family="Dialog" font-size="12" x="1674" y="265">
processData(apiName : String,jsonData : Object)</text>
<rect fill="#ffffff" height="71" stroke="#ffffff" stroke-width="1" width="312" x="1622" y="118"/>
<rect fill="none" height="71" stroke="#000000" stroke-width="1" width="312" x="1622" y="118"/>
<text font-family="Dialog" font-size="12" x="1734" y="132">
OntologyBuilder</text>
<rect fill="#000000" height="1" stroke="#000000" stroke-width="1" width="312" x="1622" y="142"/>
<rect fill="#000000" height="1" stroke="#000000" stroke-width="1" width="312" x="1622" y="163"/>
<text font-family="Dialog" font-size="12" x="1626" y="178">
buildOntoogy(apiName : String,processedData : Object)</text>
<polyline fill="none" points="1894,453 1777,453" stroke="#000000" stroke-width="1"/>
<polygon fill="#ffffff" points="1777,453 1789,446 1789,460" stroke="#ffffff" stroke-width="1"/>
<polygon fill="none" points="1777,453 1789,446 1789,460" stroke="#000000" stroke-width="1"/>
<polyline fill="none" points="1886,526 1777,508" stroke="#000000" stroke-width="1"/>
<polygon fill="#ffffff" points="1777,508 1789,503 1787,516" stroke="#ffffff" stroke-width="1"/>
<polygon fill="none" points="1777,508 1789,503 1787,516" stroke="#000000" stroke-width="1"/>
<polyline fill="none" points="1606,438 1470,426" stroke="#000000" stroke-width="1"/>
<polygon fill="#ffffff" points="1470,426 1482,420 1481,434" stroke="#ffffff" stroke-width="1"/>
<polygon fill="none" points="1470,426 1482,420 1481,434" stroke="#000000" stroke-width="1"/>
<polyline fill="none" points="2022,261 1936,261" stroke="#000000" stroke-width="1"/>
<polygon fill="#ffffff" points="1936,261 1948,254 1948,268" stroke="#ffffff" stroke-width="1"/>
<polygon fill="none" points="1936,261 1948,254 1948,268" stroke="#000000" stroke-width="1"/>
<polyline fill="none" points="1718,302 1718,274" stroke="#000000" stroke-width="1"/>
<polygon fill="#ffffff" points="1718,274 1725,286 1711,286" stroke="#ffffff" stroke-width="1"/>
<polygon fill="none" points="1718,274 1725,286 1711,286" stroke="#000000" stroke-width="1"/>
<polyline fill="none" points="2238,158 1933,158" stroke="#000000" stroke-width="1"/>
<polygon fill="#ffffff" points="1933,158 1945,151 1945,165" stroke="#ffffff" stroke-width="1"/>
<polygon fill="none" points="1933,158 1945,151 1945,165" stroke="#000000" stroke-width="1"/>
<polyline fill="none" points="1845,82 1845,118" stroke="#000000" stroke-width="1"/>
<polygon fill="#ffffff" points="1845,118 1838,106 1852,106" stroke="#ffffff" stroke-width="1"/>
<polygon fill="none" points="1845,118 1838,106 1852,106" stroke="#000000" stroke-width="1"/>
<rect fill="#ffffff" height="262" stroke="#ffffff" stroke-width="1" width="161" x="630" y="774"/>
<rect fill="none" height="262" stroke="#000000" stroke-width="1" width="161" x="630" y="774"/>
<text font-family="Dialog" font-size="12" x="679" y="788">
MarvelCard</text>
<rect fill="#000000" height="1" stroke="#000000" stroke-width="1" width="161" x="630" y="798"/>
<text font-family="Dialog" font-size="12" x="634" y="813">
weight : String</text>
<text font-family="Dialog" font-size="12" x="634" y="830">
height : String</text>
<text font-family="Dialog" font-size="12" x="634" y="847">
alignment : String</text>
<text font-family="Dialog" font-size="12" x="634" y="864">
fullName : String</text>
<text font-family="Dialog" font-size="12" x="634" y="881">
gender : String</text>
<text font-family="Dialog" font-size="12" x="634" y="898">
placeOfBirth : String</text>
<text font-family="Dialog" font-size="12" x="634" y="915">
alias : List&lt;String&gt;</text>
<text font-family="Dialog" font-size="12" x="634" y="932">
eyeColor : List&lt;String&gt;</text>
<text font-family="Dialog" font-size="12" x="634" y="949">
hairColor : List&lt;String&gt;</text>
<text font-family="Dialog" font-size="12" x="634" y="966">
occupations : List&lt;String&gt;</text>
<text font-family="Dialog" font-size="12" x="634" y="983">
race : List&lt;String&gt;</text>
<text font-family="Dialog" font-size="12" x="634" y="1000">
stories : List&lt;String&gt;</text>
<rect fill="#000000" height="1" stroke="#000000" stroke-width="1" width="161" x="630" y="1010"/>
<text font-family="Dialog" font-size="12" x="634" y="1025">
convertToJSONLD() : Object</text>
<rect fill="#ffffff" height="177" stroke="#ffffff" stroke-width="1" width="161" x="934" y="822"/>
<rect fill="none" height="177" stroke="#000000" stroke-width="1" width="161" x="934" y="822"/>
<text font-family="Dialog" font-size="12" x="974" y="836">
PokemonCard</text>
<rect fill="#000000" height="1" stroke="#000000" stroke-width="1" width="161" x="934" y="846"/>
<text font-family="Dialog" font-size="12" x="938" y="861">
weight : String</text>
<text font-family="Dialog" font-size="12" x="938" y="878">
height : String</text>
<text font-family="Dialog" font-size="12" x="938" y="895">
experience : Integer</text>
<text font-family="Dialog" font-size="12" x="938" y="912">
species : String</text>
<text font-family="Dialog" font-size="12" x="938" y="929">
color : String</text>
<text font-family="Dialog" font-size="12" x="938" y="946">
abilities : List&lt;String&gt;</text>
<text font-family="Dialog" font-size="12" x="938" y="963">
stats : PokemonStats</text>
<rect fill="#000000" height="1" stroke="#000000" stroke-width="1" width="161" x="934" y="973"/>
<text font-family="Dialog" font-size="12" x="938" y="988">
convertToJSONLD() : Object</text>
<rect fill="#ffffff" height="262" stroke="#ffffff" stroke-width="1" width="200" x="1206" y="870"/>
<rect fill="none" height="262" stroke="#000000" stroke-width="1" width="200" x="1206" y="870"/>
<text font-family="Dialog" font-size="12" x="1267" y="884">
StarWarsCard</text>
<rect fill="#000000" height="1" stroke="#000000" stroke-width="1" width="200" x="1206" y="894"/>
<text font-family="Dialog" font-size="12" x="1210" y="909">
weight : String</text>
<text font-family="Dialog" font-size="12" x="1210" y="926">
height : String</text>
<text font-family="Dialog" font-size="12" x="1210" y="943">
gender : String</text>
<text font-family="Dialog" font-size="12" x="1210" y="960">
birthYear : String</text>
<text font-family="Dialog" font-size="12" x="1210" y="977">
eyeColor : List&lt;String&gt;</text>
<text font-family="Dialog" font-size="12" x="1210" y="994">
hairColor : List&lt;String&gt;</text>
<text font-family="Dialog" font-size="12" x="1210" y="1011">
skinColor : List&lt;String&gt;</text>
<text font-family="Dialog" font-size="12" x="1210" y="1028">
films : List&lt;StarWarsFilm&gt;</text>
<text font-family="Dialog" font-size="12" x="1210" y="1045">
species : List&lt;StarWarsSpecies&gt;</text>
<text font-family="Dialog" font-size="12" x="1210" y="1062">
homeworld : StarWarsPlanet</text>
<text font-family="Dialog" font-size="12" x="1210" y="1079">
starships : List&lt;StarWarsStarship&gt;</text>
<text font-family="Dialog" font-size="12" x="1210" y="1096">
vehicles : List&lt;StarWarsVehicle&gt;</text>
<rect fill="#000000" height="1" stroke="#000000" stroke-width="1" width="200" x="1206" y="1106"/>
<text font-family="Dialog" font-size="12" x="1210" y="1121">
convertToJSONLD() : Object</text>
<rect fill="#ffffff" height="104" stroke="#ffffff" stroke-width="1" width="161" x="1510" y="814"/>
<rect fill="none" height="104" stroke="#000000" stroke-width="1" width="161" x="1510" y="814"/>
<text font-family="Dialog" font-size="12" x="1554" y="828">
StarTrekCard</text>
<rect fill="#000000" height="1" stroke="#000000" stroke-width="1" width="161" x="1510" y="837"/>
<text font-family="Dialog" font-size="12" x="1514" y="852">
quadrant : String</text>
<text font-family="Dialog" font-size="12" x="1514" y="868">
homeworld : String</text>
<text font-family="Dialog" font-size="12" x="1514" y="884">
species : List&lt;String&gt;</text>
<rect fill="#000000" height="1" stroke="#000000" stroke-width="1" width="161" x="1510" y="893"/>
<text font-family="Dialog" font-size="12" x="1514" y="908">
convertToJSONLD() : Object</text>
<polyline fill="none" points="790,774 1126,685" stroke="#000000" stroke-width="1"/>
<polygon fill="#ffffff" points="1126,685 1116,694 1112,681" stroke="#ffffff" stroke-width="1"/>
<polygon fill="none" points="1126,685 1116,694 1112,681" stroke="#000000" stroke-width="1"/>
<polyline fill="none" points="1094,822 1126,685" stroke="#000000" stroke-width="1"/>
<polygon fill="#ffffff" points="1126,685 1130,698 1116,695" stroke="#ffffff" stroke-width="1"/>
<polygon fill="none" points="1126,685 1130,698 1116,695" stroke="#000000" stroke-width="1"/>
<polyline fill="none" points="1291,870 1291,685" stroke="#000000" stroke-width="1"/>
<polygon fill="#ffffff" points="1291,685 1298,697 1284,697" stroke="#ffffff" stroke-width="1"/>
<polygon fill="none" points="1291,685 1298,697 1284,697" stroke="#000000" stroke-width="1"/>
<polyline fill="none" points="1510,814 1291,685" stroke="#000000" stroke-width="1"/>
<polygon fill="#ffffff" points="1291,685 1304,685 1297,697" stroke="#ffffff" stroke-width="1"/>
<polygon fill="none" points="1291,685 1304,685 1297,697" stroke="#000000" stroke-width="1"/>
<rect fill="#ffffff" height="88" stroke="#ffffff" stroke-width="1" width="144" x="1462" y="566"/>
<rect fill="none" height="88" stroke="#000000" stroke-width="1" width="144" x="1462" y="566"/>
<text font-family="Dialog" font-size="12" x="1490" y="580">
CardPowerType</text>
<rect fill="#000000" height="1" stroke="#000000" stroke-width="1" width="144" x="1462" y="590"/>
<text font-family="Dialog" font-size="12" x="1466" y="605">
name : String</text>
<text font-family="Dialog" font-size="12" x="1466" y="622">
defeats : List&lt;String&gt;</text>
<rect fill="#000000" height="1" stroke="#000000" stroke-width="1" width="144" x="1462" y="632"/>
<polyline fill="none" points="1462,646 1291,646" stroke="#000000" stroke-width="1"/>
<polygon fill="#ffffff" points="1291,646 1303,639 1303,653" stroke="#ffffff" stroke-width="1"/>
<polygon fill="none" points="1291,646 1303,639 1303,653" stroke="#000000" stroke-width="1"/>
<polyline fill="none" points="1925,82 1925,118" stroke="#000000" stroke-width="1"/>
<polygon fill="#ffffff" points="1925,118 1918,106 1932,106" stroke="#ffffff" stroke-width="1"/>
<polygon fill="none" points="1925,118 1918,106 1932,106" stroke="#000000" stroke-width="1"/>
<polyline fill="none" points="2214,118 1933,118" stroke="#000000" stroke-width="1"/>
<polygon fill="#ffffff" points="1933,118 1945,111 1945,125" stroke="#ffffff" stroke-width="1"/>
<polygon fill="none" points="1933,118 1945,111 1945,125" stroke="#000000" stroke-width="1"/>
<polyline fill="none" points="1886,622 1777,508" stroke="#000000" stroke-width="1"/>
<polygon fill="#ffffff" points="1777,508 1790,511 1780,521" stroke="#ffffff" stroke-width="1"/>
<polygon fill="none" points="1777,508 1790,511 1780,521" stroke="#000000" stroke-width="1"/>
<polyline fill="none" points="1790,718 1777,508" stroke="#000000" stroke-width="1"/>
<polygon fill="#ffffff" points="1777,508 1784,519 1770,520" stroke="#ffffff" stroke-width="1"/>
<polygon fill="none" points="1777,508 1784,519 1770,520" stroke="#000000" stroke-width="1"/>
<polyline fill="none" points="1838,318 1838,274" stroke="#000000" stroke-width="1"/>
<polygon fill="#ffffff" points="1838,274 1845,286 1831,286" stroke="#ffffff" stroke-width="1"/>
<polygon fill="none" points="1838,274 1845,286 1831,286" stroke="#000000" stroke-width="1"/>
<polyline fill="none" points="2030,302 1936,274" stroke="#000000" stroke-width="1"/>
<polygon fill="#ffffff" points="1936,274 1949,270 1945,284" stroke="#ffffff" stroke-width="1"/>
<polygon fill="none" points="1936,274 1949,270 1945,284" stroke="#000000" stroke-width="1"/>
<polyline fill="none" points="1670,274 1470,274" stroke="#000000" stroke-width="1"/>
<polygon fill="#ffffff" points="1470,274 1482,267 1482,281" stroke="#ffffff" stroke-width="1"/>
<polygon fill="none" points="1470,274 1482,267 1482,281" stroke="#000000" stroke-width="1"/>
<rect fill="#ffffff" height="149" stroke="#ffffff" stroke-width="1" width="137" x="966" y="1086"/>
<rect fill="none" height="149" stroke="#000000" stroke-width="1" width="137" x="966" y="1086"/>
<text font-family="Dialog" font-size="12" x="994" y="1100">
PokemonStats</text>
<rect fill="#000000" height="1" stroke="#000000" stroke-width="1" width="137" x="966" y="1109"/>
<text font-family="Dialog" font-size="12" x="970" y="1124">
attack : Integer</text>
<text font-family="Dialog" font-size="12" x="970" y="1140">
defense : Integer</text>
<text font-family="Dialog" font-size="12" x="970" y="1156">
hp : Integer</text>
<text font-family="Dialog" font-size="12" x="970" y="1172">
specialAttack : Integer</text>
<text font-family="Dialog" font-size="12" x="970" y="1188">
specialDefense : Integer</text>
<text font-family="Dialog" font-size="12" x="970" y="1204">
speed : Integer</text>
<rect fill="#000000" height="1" stroke="#000000" stroke-width="1" width="137" x="966" y="1213"/>
<polyline fill="none" points="1014,1086 1014,998" stroke="#000000" stroke-width="1"/>
<polygon fill="#ffffff" points="1014,998 1021,1010 1007,1010" stroke="#ffffff" stroke-width="1"/>
<polygon fill="none" points="1014,998 1021,1010 1007,1010" stroke="#000000" stroke-width="1"/>
<rect fill="#ffffff" height="117" stroke="#ffffff" stroke-width="1" width="135" x="1086" y="1270"/>
<rect fill="none" height="117" stroke="#000000" stroke-width="1" width="135" x="1086" y="1270"/>
<text font-family="Dialog" font-size="12" x="1116" y="1284">
StarWarsFilm</text>
<rect fill="#000000" height="1" stroke="#000000" stroke-width="1" width="135" x="1086" y="1293"/>
<text font-family="Dialog" font-size="12" x="1090" y="1308">
director : String</text>
<text font-family="Dialog" font-size="12" x="1090" y="1324">
producers : List&lt;String&gt;</text>
<text font-family="Dialog" font-size="12" x="1090" y="1340">
releaseDate : String</text>
<text font-family="Dialog" font-size="12" x="1090" y="1356">
title : String</text>
<rect fill="#000000" height="1" stroke="#000000" stroke-width="1" width="135" x="1086" y="1365"/>
<polyline fill="none" points="1220,1270 1220,1131" stroke="#000000" stroke-width="1"/>
<polygon fill="#ffffff" points="1220,1131 1227,1143 1213,1143" stroke="#ffffff" stroke-width="1"/>
<polygon fill="none" points="1220,1131 1227,1143 1213,1143" stroke="#000000" stroke-width="1"/>
<rect fill="#ffffff" height="101" stroke="#ffffff" stroke-width="1" width="138" x="1246" y="1294"/>
<rect fill="none" height="101" stroke="#000000" stroke-width="1" width="138" x="1246" y="1294"/>
<text font-family="Dialog" font-size="12" x="1267" y="1308">
StarWarsSpecies</text>
<rect fill="#000000" height="1" stroke="#000000" stroke-width="1" width="138" x="1246" y="1317"/>
<text font-family="Dialog" font-size="12" x="1250" y="1332">
averageLifespan : String</text>
<text font-family="Dialog" font-size="12" x="1250" y="1348">
classification : String</text>
<text font-family="Dialog" font-size="12" x="1250" y="1364">
name : String</text>
<rect fill="#000000" height="1" stroke="#000000" stroke-width="1" width="138" x="1246" y="1373"/>
<polyline fill="none" points="1326,1294 1326,1131" stroke="#000000" stroke-width="1"/>
<polygon fill="#ffffff" points="1326,1131 1333,1143 1319,1143" stroke="#ffffff" stroke-width="1"/>
<polygon fill="none" points="1326,1131 1333,1143 1319,1143" stroke="#000000" stroke-width="1"/>
<rect fill="#ffffff" height="149" stroke="#ffffff" stroke-width="1" width="181" x="1406" y="1278"/>
<rect fill="none" height="149" stroke="#000000" stroke-width="1" width="181" x="1406" y="1278"/>
<text font-family="Dialog" font-size="12" x="1448" y="1292">
StarWarsStarship</text>
<rect fill="#000000" height="1" stroke="#000000" stroke-width="1" width="181" x="1406" y="1301"/>
<text font-family="Dialog" font-size="12" x="1410" y="1316">
name : String</text>
<text font-family="Dialog" font-size="12" x="1410" y="1332">
crew : String</text>
<text font-family="Dialog" font-size="12" x="1410" y="1348">
hyperdriveRating : String</text>
<text font-family="Dialog" font-size="12" x="1410" y="1364">
length : String</text>
<text font-family="Dialog" font-size="12" x="1410" y="1380">
maxAtmospheringSpeed : String</text>
<text font-family="Dialog" font-size="12" x="1410" y="1396">
passengers : String</text>
<rect fill="#000000" height="1" stroke="#000000" stroke-width="1" width="181" x="1406" y="1405"/>
<rect fill="#ffffff" height="133" stroke="#ffffff" stroke-width="1" width="181" x="1622" y="1262"/>
<rect fill="none" height="133" stroke="#000000" stroke-width="1" width="181" x="1622" y="1262"/>
<text font-family="Dialog" font-size="12" x="1667" y="1276">
StarWarsVehicle</text>
<rect fill="#000000" height="1" stroke="#000000" stroke-width="1" width="181" x="1622" y="1285"/>
<text font-family="Dialog" font-size="12" x="1626" y="1300">
name : String</text>
<text font-family="Dialog" font-size="12" x="1626" y="1316">
crew : String</text>
<text font-family="Dialog" font-size="12" x="1626" y="1332">
length : String</text>
<text font-family="Dialog" font-size="12" x="1626" y="1348">
maxAtmospheringSpeed : String</text>
<text font-family="Dialog" font-size="12" x="1626" y="1364">
passengers : String</text>
<rect fill="#000000" height="1" stroke="#000000" stroke-width="1" width="181" x="1622" y="1373"/>
<rect fill="#ffffff" height="122" stroke="#ffffff" stroke-width="1" width="123" x="1502" y="1014"/>
<rect fill="none" height="122" stroke="#000000" stroke-width="1" width="123" x="1502" y="1014"/>
<text font-family="Dialog" font-size="12" x="1520" y="1028">
StarWarsPlanet</text>
<rect fill="#000000" height="1" stroke="#000000" stroke-width="1" width="123" x="1502" y="1038"/>
<text font-family="Dialog" font-size="12" x="1506" y="1053">
name : String</text>
<text font-family="Dialog" font-size="12" x="1506" y="1070">
surfaceWater : String</text>
<text font-family="Dialog" font-size="12" x="1506" y="1087">
climate : List&lt;String&gt;</text>
<text font-family="Dialog" font-size="12" x="1506" y="1104">
terrain : List&lt;String&gt;</text>
<rect fill="#000000" height="1" stroke="#000000" stroke-width="1" width="123" x="1502" y="1114"/>
<polyline fill="none" points="1622,1262 1405,1131" stroke="#000000" stroke-width="1"/>
<polygon fill="#ffffff" points="1405,1131 1418,1131 1411,1143" stroke="#ffffff" stroke-width="1"/>
<polygon fill="none" points="1405,1131 1418,1131 1411,1143" stroke="#000000" stroke-width="1"/>
<polyline fill="none" points="1502,1094 1405,1094" stroke="#000000" stroke-width="1"/>
<polygon fill="#ffffff" points="1405,1094 1417,1087 1417,1101" stroke="#ffffff" stroke-width="1"/>
<polygon fill="none" points="1405,1094 1417,1087 1417,1101" stroke="#000000" stroke-width="1"/>
<polyline fill="none" points="1406,1278 1382,1166 1382,1131" stroke="#000000" stroke-width="1"/>
<polygon fill="#ffffff" points="1382,1131 1389,1143 1375,1143" stroke="#ffffff" stroke-width="1"/>
<polygon fill="none" points="1382,1131 1389,1143 1375,1143" stroke="#000000" stroke-width="1"/>
<rect fill="#ffffff" height="112" stroke="#ffffff" stroke-width="1" width="387" x="982" y="110"/>
<rect fill="none" height="112" stroke="#000000" stroke-width="1" width="387" x="982" y="110"/>
<text font-family="Dialog" font-size="12" x="1139" y="124">
OntologyUtils</text>
<rect fill="#000000" height="1" stroke="#000000" stroke-width="1" width="387" x="982" y="134"/>
<rect fill="#000000" height="1" stroke="#000000" stroke-width="1" width="387" x="982" y="158"/>
<text font-family="Dialog" font-size="12" x="986" y="173">
entityIdToJSONLD(entityId : String,triplestoreEndpoint : String) : Object</text>
<text font-family="Dialog" font-size="12" x="986" y="190">
entityIdToUniverse(entityId : String,triplestoreEndpoint : String) : String</text>
<text font-family="Dialog" font-size="12" x="986" y="207">
buildOntology()</text>
<polyline fill="none" points="1094,221 1094,254" stroke="#000000" stroke-width="1"/>
<polygon fill="#ffffff" points="1094,254 1087,242 1101,242" stroke="#ffffff" stroke-width="1"/>
<polygon fill="none" points="1094,254 1087,242 1101,242" stroke="#000000" stroke-width="1"/>
<polyline fill="none" points="1622,158 1368,158" stroke="#000000" stroke-width="1"/>
<polygon fill="#ffffff" points="1368,158 1380,151 1380,165" stroke="#ffffff" stroke-width="1"/>
<polygon fill="none" points="1368,158 1380,151 1380,165" stroke="#000000" stroke-width="1"/>
</svg>
